<svg width="16.000000" height="17.000000" viewBox="0 0 16 17" fill="none" xmlns="http://www.w3.org/2000/svg" xmlns:xlink="http://www.w3.org/1999/xlink">
	<desc>
			Created with Pixso.
	</desc>
	<defs>
		<clipPath id="clip6_16510">
			<rect id="Property 1=map-pin" width="16.000000" height="17.000000" fill="white" fill-opacity="0"/>
		</clipPath>
	</defs>
	<rect id="Property 1=map-pin" width="16.000000" height="17.000000" fill="#FFFFFF" fill-opacity="0"/>
	<g clip-path="url(#clip6_16510)">
		<path id="Vector" d="M8 16C8 16 2 11.9 2 7.13C2 5.5 2.63 3.94 3.75 2.79C4.88 1.64 6.4 1 8 1C9.59 1 11.11 1.64 12.24 2.79C13.36 3.94 14 5.5 14 7.13C14 11.9 8 16 8 16Z" stroke="#666666" stroke-opacity="1.000000" stroke-width="1.000000" stroke-linejoin="round"/>
		<path id="Vector" d="M8 9C6.89 9 6 8.1 6 7C6 5.89 6.89 5 8 5C9.1 5 10 5.89 10 7C10 8.1 9.1 9 8 9Z" stroke="#666666" stroke-opacity="1.000000" stroke-width="1.000000" stroke-linejoin="round"/>
	</g>
</svg>
